<svg version="1" xmlns="http://www.w3.org/2000/svg" width="682.667" height="682.667" viewBox="0 0 512.000000 512.000000"><path d="M232 1.6C167.6 9.3 116.5 34 73.5 78.1c-38.4 39.4-60.8 84.3-70.2 140.4-1.4 8.9-1.8 16.3-1.7 38.5 0 25.1.3 28.7 2.7 42C23.4 404.9 103 486.3 207.5 506.9c33 6.5 71 5.9 104.5-1.5C407.7 484 484 407.7 505.4 312c7.4-33.5 8-71.5 1.5-104.5-15.1-76.6-63.9-141.9-133-177.9C350.8 17.5 325.5 9 299 4.3c-12.5-2.2-18-2.6-39-2.8-13.5-.2-26.1-.1-28 .1zm9.8 160.8c4.4 2.3 7.1 5.9 8 10.7 2.3 12.4-4.1 20.9-15.8 20.9-6.6 0-11.1-2-14.1-6.1-2-2.8-2.4-4.6-2.4-10.4 0-5.8.4-7.6 2.4-10.4 1.3-1.8 3.8-3.9 5.5-4.7 4.1-1.7 13-1.8 16.4 0zm-52 19.3l-.3 12.8-36.7.3-36.8.2v56h69v26h-69v75H86V169h104.1l-.3 12.7zm184.3-10c21 5.8 33.6 17.7 38.3 35.9 2.1 8 2.1 25 .1 32.9-5.1 19.9-19.5 33.5-42.2 39.7-6.3 1.7-11.5 2.2-27.5 2.6l-19.8.4V352h-30V168.8l36.8.4c33.6.4 37.3.6 44.3 2.5zM249 283v69h-30V214h30v69z"/><path d="M323 225.9V258h9.8c34.4 0 48.5-8.4 49.9-29.8.7-10.1-1.4-17.7-6.4-23.3-7.1-7.8-14.1-9.8-36.5-10.6l-16.8-.6v32.2z"/></svg>