<svg viewBox="0 0 1200 700" xmlns="http://www.w3.org/2000/svg">
<path d="M964 600l-214-393h429z m-714 0l-214-393h428z m458 107q-8-22-25-40t-40-25v-721h339q8 0 13-5t5-12v-36q0-8-5-13t-13-5h-750q-8 0-13 5t-5 13v36q0 7 5 12t13 5h339v721q-22 8-39 25t-26 40h-274q-8 0-13 5t-5 13v36q0 8 5 13t13 5h274q12 31 39 51t62 20 62-20 39-51h274q8 0 13-5t5-13v-36q0-8-5-13t-13-5h-274z m-101-9q19 0 32 13t13 32-13 31-32 14-31-14-13-31 13-32 31-13z m607-491q0-41-26-73t-65-51-81-27-78-10-78 10-80 27-66 51-26 73q0 6 20 45t51 98 60 109 57 103 31 55q10 19 31 19t32-19q2-4 31-55t57-103 59-109 52-98 19-45z m-714 0q0-41-26-73t-65-51-81-27-78-10-78 10-80 27-66 51-26 73q0 6 20 45t51 98 60 109 57 103 31 55q10 19 31 19t31-19q3-4 32-55t56-103 60-109 52-98 19-45z" horiz-adv-x="1285.7" />
</svg>