<svg viewBox="0 0 1200 700" xmlns="http://www.w3.org/2000/svg">
<path d="M571 219q0-36-20-60t-51-23h-286q-30 0-50 23t-21 60 5 65 16 58 34 43 54 16q4-2 17-10t21-12 20-9 24-9 23-2 24 2 24 9 19 9 21 12 17 10q32 0 54-16t34-43 16-58 5-65z m-87 290q0-52-37-89t-90-38-89 38-37 89 37 90 89 37 90-37 37-90z m516-248v-36q0-8-5-13t-13-5h-321q-8 0-13 5t-5 13v36q0 8 5 13t13 5h321q8 0 13-5t5-13z m0 140v-31q0-8-6-14t-14-6h-317q-8 0-14 6t-6 14v31q0 9 6 15t14 5h317q8 0 14-5t6-15z m0 145v-35q0-8-5-13t-13-5h-321q-8 0-13 5t-5 13v35q0 8 5 13t13 5h321q8 0 13-5t5-13z m71-535v678q0 8-5 13t-12 5h-965q-7 0-12-5t-6-13v-678q0-7 6-13t12-5h197v53q0 8 5 13t13 5h35q8 0 13-5t5-13v-53h429v53q0 8 5 13t13 5h35q8 0 13-5t5-13v-53h197q7 0 12 5t5 13z m72 678v-678q0-37-26-63t-63-27h-965q-36 0-63 27t-26 63v678q0 37 26 63t63 27h965q36 0 63-27t26-63z" horiz-adv-x="1142.9" />
</svg>